<svg width="23" height="22" viewBox="0 0 23 22" fill="none" xmlns="http://www.w3.org/2000/svg">
<g clip-path="url(#clip0_36_71)">
<path d="M5.21569 7.14941H0.275635V22H5.21569V7.14941Z" fill="black"/>
<path d="M21.4375 8.50584C20.4035 7.3794 19.0249 6.80469 17.3246 6.80469C16.7042 6.80469 16.1298 6.87365 15.6013 7.03457C15.0958 7.19549 14.6592 7.40239 14.2916 7.67825C13.947 7.95411 13.6483 8.20699 13.4415 8.45986C13.2347 8.68974 13.0509 8.94262 12.867 9.24147V7.12653H7.94995L7.97293 7.83917C7.97293 8.32193 7.99591 9.79319 7.99591 12.276C7.99591 14.7587 7.99591 17.9771 7.97293 21.9771H12.89V13.7012C12.89 13.1955 12.936 12.7817 13.0509 12.4828C13.2576 11.9771 13.5793 11.5403 13.9929 11.1955C14.4065 10.8507 14.935 10.6897 15.5783 10.6897C16.4285 10.6897 17.0718 10.9886 17.4624 11.5863C17.876 12.184 18.0598 13.0116 18.0598 14.0461V21.9771H22.9769V13.4714C22.9999 11.2874 22.4944 9.63227 21.4375 8.50584Z" fill="black"/>
<path d="M2.78022 0C1.95305 0 1.28671 0.252874 0.781219 0.735632C0.252747 1.21839 0 1.81609 0 2.55172C0 3.28736 0.252747 3.88506 0.758242 4.39081C1.26374 4.87356 1.90709 5.12644 2.73427 5.12644H2.75724C3.60739 5.12644 4.27373 4.87356 4.77922 4.39081C5.28472 3.90805 5.53746 3.28736 5.53746 2.55172C5.53746 1.81609 5.26174 1.1954 4.77922 0.712644C4.27373 0.252874 3.60739 0 2.78022 0Z" fill="black"/>
</g>
<defs>
<clipPath id="clip0_36_71">
<rect width="23" height="22" fill="white"/>
</clipPath>
</defs>
</svg>
