<svg width="25" height="20" viewBox="0 0 25 20" fill="none" xmlns="http://www.w3.org/2000/svg">
<path d="M24.999 2.3741C24.0252 2.78177 23.0272 3.04556 22.0535 3.16547C23.1732 2.51799 23.9035 1.58273 24.3174 0.383693C23.295 0.959233 22.1995 1.36691 21.0554 1.58273C20.033 0.527578 18.7916 0 17.3066 0C15.8948 0 14.6776 0.503597 13.6796 1.48681C12.6815 2.47002 12.1703 3.66906 12.1703 5.05995C12.1703 5.44365 12.219 5.82734 12.292 6.21103C10.1986 6.11511 8.2268 5.58753 6.40109 4.65228C4.57539 3.71703 3.01745 2.47002 1.72729 0.935252C1.26477 1.72662 1.02135 2.56595 1.02135 3.47722C1.02135 4.34053 1.21609 5.15588 1.62992 5.8753C2.04374 6.6187 2.60363 7.21823 3.28522 7.67386C2.45757 7.64988 1.6786 7.43405 0.972662 7.02638V7.09832C0.972662 8.32134 1.36215 9.3765 2.14111 10.3118C2.92008 11.223 3.89379 11.8225 5.08659 12.0623C4.64842 12.1823 4.1859 12.2302 3.74774 12.2302C3.45562 12.2302 3.13917 12.2062 2.77403 12.1583C3.09048 13.1655 3.69905 14.0048 4.57539 14.6523C5.45173 15.2998 6.44978 15.6355 7.56955 15.6595C5.7195 17.0983 3.57734 17.8177 1.21609 17.8177C0.753577 17.8177 0.339751 17.7938 -0.0253906 17.7458C2.3602 19.2566 4.98921 20 7.83732 20C9.66302 20 11.367 19.7122 12.9736 19.1607C14.5803 18.5851 15.9435 17.8417 17.0632 16.8825C18.183 15.9233 19.181 14.8201 19.9843 13.5971C20.812 12.3501 21.4206 11.0552 21.8101 9.71223C22.1995 8.3693 22.4186 7.0024 22.4186 5.65947C22.4186 5.3717 22.4186 5.15588 22.3943 5.01199C23.441 4.26858 24.293 3.40528 24.999 2.3741Z" fill="black"/>
</svg>
